<mxfile host="app.diagrams.net" modified="2023-05-08T17:29:39.181Z" agent="Mozilla/5.0 (Windows NT 10.0; Win64; x64) AppleWebKit/537.36 (KHTML, like Gecko) Chrome/113.0.0.0 Safari/537.36" etag="FlE06OKMZC1-1fdoBiaB" version="21.2.9" type="device">
  <diagram name="Diagrama de secuencia" id="ugRJW9YGyWWBzX6A_P1t">
    <mxGraphModel dx="1434" dy="838" grid="1" gridSize="10" guides="1" tooltips="1" connect="1" arrows="1" fold="1" page="1" pageScale="1" pageWidth="850" pageHeight="1100" math="0" shadow="0">
      <root>
        <mxCell id="0" />
        <mxCell id="1" parent="0" />
        <mxCell id="udJZXEkAbmuMHJ7mnlVX-3" value="" style="shape=umlLifeline;perimeter=lifelinePerimeter;whiteSpace=wrap;html=1;container=1;dropTarget=0;collapsible=0;recursiveResize=0;outlineConnect=0;portConstraint=eastwest;newEdgeStyle={&quot;edgeStyle&quot;:&quot;elbowEdgeStyle&quot;,&quot;elbow&quot;:&quot;vertical&quot;,&quot;curved&quot;:0,&quot;rounded&quot;:0};participant=umlActor;" parent="1" vertex="1">
          <mxGeometry x="120" y="150" width="20" height="90" as="geometry" />
        </mxCell>
        <mxCell id="udJZXEkAbmuMHJ7mnlVX-4" value="Factura" style="html=1;whiteSpace=wrap;" parent="1" vertex="1">
          <mxGeometry x="240" y="150" width="90" height="40" as="geometry" />
        </mxCell>
        <mxCell id="udJZXEkAbmuMHJ7mnlVX-1" value="" style="html=1;points=[];perimeter=orthogonalPerimeter;outlineConnect=0;targetShapes=umlLifeline;portConstraint=eastwest;newEdgeStyle={&quot;edgeStyle&quot;:&quot;elbowEdgeStyle&quot;,&quot;elbow&quot;:&quot;vertical&quot;,&quot;curved&quot;:0,&quot;rounded&quot;:0};" parent="1" vertex="1">
          <mxGeometry x="125" y="240" width="10" height="350" as="geometry" />
        </mxCell>
        <mxCell id="FTkvgENvST_l3_7t1_4h-1" value="Poducto" style="html=1;whiteSpace=wrap;" parent="1" vertex="1">
          <mxGeometry x="540" y="150" width="90" height="40" as="geometry" />
        </mxCell>
        <mxCell id="FTkvgENvST_l3_7t1_4h-2" value="Item Factura" style="html=1;whiteSpace=wrap;" parent="1" vertex="1">
          <mxGeometry x="390" y="150" width="90" height="40" as="geometry" />
        </mxCell>
        <mxCell id="x2OQANyv_vTtA4uR1sMF-1" value="1- calcularTotal()" style="endArrow=open;endFill=1;endSize=12;html=1;rounded=0;fontSize=9;curved=1;" parent="1" source="udJZXEkAbmuMHJ7mnlVX-1" target="x2OQANyv_vTtA4uR1sMF-2" edge="1">
          <mxGeometry width="160" relative="1" as="geometry">
            <mxPoint x="140" y="250" as="sourcePoint" />
            <mxPoint x="275" y="250" as="targetPoint" />
            <Array as="points">
              <mxPoint x="225" y="250" />
            </Array>
          </mxGeometry>
        </mxCell>
        <mxCell id="x2OQANyv_vTtA4uR1sMF-2" value="" style="html=1;points=[];perimeter=orthogonalPerimeter;outlineConnect=0;targetShapes=umlLifeline;portConstraint=eastwest;newEdgeStyle={&quot;edgeStyle&quot;:&quot;elbowEdgeStyle&quot;,&quot;elbow&quot;:&quot;vertical&quot;,&quot;curved&quot;:0,&quot;rounded&quot;:0};" parent="1" vertex="1">
          <mxGeometry x="280" y="250" width="10" height="280" as="geometry" />
        </mxCell>
        <mxCell id="x2OQANyv_vTtA4uR1sMF-3" value="" style="endArrow=none;dashed=1;html=1;rounded=0;fontSize=12;startSize=8;endSize=8;curved=1;entryX=0.5;entryY=1;entryDx=0;entryDy=0;" parent="1" source="x2OQANyv_vTtA4uR1sMF-2" target="udJZXEkAbmuMHJ7mnlVX-4" edge="1">
          <mxGeometry width="50" height="50" relative="1" as="geometry">
            <mxPoint x="350" y="360" as="sourcePoint" />
            <mxPoint x="400" y="310" as="targetPoint" />
          </mxGeometry>
        </mxCell>
        <mxCell id="x2OQANyv_vTtA4uR1sMF-8" value="" style="endArrow=none;dashed=1;html=1;rounded=0;fontSize=12;startSize=8;endSize=8;curved=1;entryX=0.5;entryY=1;entryDx=0;entryDy=0;exitX=0.471;exitY=0;exitDx=0;exitDy=0;exitPerimeter=0;" parent="1" source="x2OQANyv_vTtA4uR1sMF-22" edge="1">
          <mxGeometry width="50" height="50" relative="1" as="geometry">
            <mxPoint x="434.7099999999998" y="330" as="sourcePoint" />
            <mxPoint x="434.71000000000004" y="190" as="targetPoint" />
          </mxGeometry>
        </mxCell>
        <mxCell id="x2OQANyv_vTtA4uR1sMF-21" value="" style="endArrow=none;dashed=1;html=1;rounded=0;fontSize=12;startSize=8;endSize=8;curved=1;" parent="1" source="x2OQANyv_vTtA4uR1sMF-24" edge="1">
          <mxGeometry width="50" height="50" relative="1" as="geometry">
            <mxPoint x="585" y="370" as="sourcePoint" />
            <mxPoint x="584.8" y="190" as="targetPoint" />
          </mxGeometry>
        </mxCell>
        <mxCell id="x2OQANyv_vTtA4uR1sMF-23" value="" style="endArrow=none;dashed=1;html=1;rounded=0;fontSize=12;startSize=8;endSize=8;curved=1;entryX=0.5;entryY=1;entryDx=0;entryDy=0;exitX=0.471;exitY=0;exitDx=0;exitDy=0;exitPerimeter=0;" parent="1" target="x2OQANyv_vTtA4uR1sMF-22" edge="1">
          <mxGeometry width="50" height="50" relative="1" as="geometry">
            <mxPoint x="434.7099999999998" y="330" as="sourcePoint" />
            <mxPoint x="434.71000000000004" y="190" as="targetPoint" />
          </mxGeometry>
        </mxCell>
        <mxCell id="x2OQANyv_vTtA4uR1sMF-22" value="" style="html=1;points=[];perimeter=orthogonalPerimeter;outlineConnect=0;targetShapes=umlLifeline;portConstraint=eastwest;newEdgeStyle={&quot;edgeStyle&quot;:&quot;elbowEdgeStyle&quot;,&quot;elbow&quot;:&quot;vertical&quot;,&quot;curved&quot;:0,&quot;rounded&quot;:0};fontStyle=1" parent="1" vertex="1">
          <mxGeometry x="430" y="300" width="10" height="150" as="geometry" />
        </mxCell>
        <mxCell id="x2OQANyv_vTtA4uR1sMF-4" value="Loop" style="shape=umlFrame;whiteSpace=wrap;html=1;pointerEvents=0;fontSize=16;" parent="1" vertex="1">
          <mxGeometry x="210" y="270" width="440" height="230" as="geometry" />
        </mxCell>
        <mxCell id="x2OQANyv_vTtA4uR1sMF-10" value="2- calcularImporte()" style="endArrow=open;endFill=1;endSize=12;html=1;rounded=0;fontSize=9;curved=1;" parent="1" edge="1">
          <mxGeometry width="160" relative="1" as="geometry">
            <mxPoint x="290" y="310" as="sourcePoint" />
            <mxPoint x="430" y="310" as="targetPoint" />
            <Array as="points">
              <mxPoint x="340" y="310" />
            </Array>
          </mxGeometry>
        </mxCell>
        <mxCell id="x2OQANyv_vTtA4uR1sMF-26" value="3- getImporte()" style="endArrow=open;endFill=1;endSize=12;html=1;rounded=0;fontSize=9;curved=1;" parent="1" edge="1">
          <mxGeometry width="160" relative="1" as="geometry">
            <mxPoint x="440" y="339.99666666666667" as="sourcePoint" />
            <mxPoint x="580" y="339.99666666666667" as="targetPoint" />
            <Array as="points">
              <mxPoint x="490" y="339.99666666666667" />
            </Array>
          </mxGeometry>
        </mxCell>
        <mxCell id="x2OQANyv_vTtA4uR1sMF-24" value="" style="html=1;points=[];perimeter=orthogonalPerimeter;outlineConnect=0;targetShapes=umlLifeline;portConstraint=eastwest;newEdgeStyle={&quot;edgeStyle&quot;:&quot;elbowEdgeStyle&quot;,&quot;elbow&quot;:&quot;vertical&quot;,&quot;curved&quot;:0,&quot;rounded&quot;:0};fontStyle=1" parent="1" vertex="1">
          <mxGeometry x="580" y="340" width="10" height="60" as="geometry" />
        </mxCell>
        <mxCell id="x2OQANyv_vTtA4uR1sMF-30" value="5- devolver importe de item" style="endArrow=open;endFill=1;endSize=12;html=1;rounded=0;fontSize=9;curved=1;" parent="1" edge="1">
          <mxGeometry x="-0.0769" width="160" relative="1" as="geometry">
            <mxPoint x="430" y="450" as="sourcePoint" />
            <mxPoint x="290" y="450" as="targetPoint" />
            <Array as="points" />
            <mxPoint as="offset" />
          </mxGeometry>
        </mxCell>
        <mxCell id="x2OQANyv_vTtA4uR1sMF-29" value="4- devolver importe unitario" style="endArrow=open;endFill=1;endSize=12;html=1;rounded=0;fontSize=9;curved=1;" parent="1" edge="1">
          <mxGeometry x="-0.0769" width="160" relative="1" as="geometry">
            <mxPoint x="580" y="400.29" as="sourcePoint" />
            <mxPoint x="440" y="400" as="targetPoint" />
            <Array as="points" />
            <mxPoint as="offset" />
          </mxGeometry>
        </mxCell>
        <mxCell id="x2OQANyv_vTtA4uR1sMF-33" value="Todos los Items" style="text;html=1;align=center;verticalAlign=middle;resizable=0;points=[];autosize=1;strokeColor=none;fillColor=none;fontSize=6;" parent="1" vertex="1">
          <mxGeometry x="200" y="300" width="70" height="20" as="geometry" />
        </mxCell>
        <mxCell id="x2OQANyv_vTtA4uR1sMF-34" value="" style="endArrow=none;dashed=1;html=1;rounded=0;fontSize=12;startSize=8;endSize=8;curved=1;entryX=0.5;entryY=1;entryDx=0;entryDy=0;" parent="1" edge="1">
          <mxGeometry width="50" height="50" relative="1" as="geometry">
            <mxPoint x="435" y="590" as="sourcePoint" />
            <mxPoint x="434.66" y="450" as="targetPoint" />
          </mxGeometry>
        </mxCell>
        <mxCell id="x2OQANyv_vTtA4uR1sMF-35" value="" style="endArrow=none;dashed=1;html=1;rounded=0;fontSize=12;startSize=8;endSize=8;curved=1;entryX=0.5;entryY=1;entryDx=0;entryDy=0;" parent="1" edge="1">
          <mxGeometry width="50" height="50" relative="1" as="geometry">
            <mxPoint x="585" y="590" as="sourcePoint" />
            <mxPoint x="584.8" y="400" as="targetPoint" />
          </mxGeometry>
        </mxCell>
        <mxCell id="x2OQANyv_vTtA4uR1sMF-36" value="" style="endArrow=none;dashed=1;html=1;rounded=0;fontSize=12;startSize=8;endSize=8;curved=1;" parent="1" target="x2OQANyv_vTtA4uR1sMF-2" edge="1">
          <mxGeometry width="50" height="50" relative="1" as="geometry">
            <mxPoint x="284.96" y="590" as="sourcePoint" />
            <mxPoint x="284.76" y="540" as="targetPoint" />
          </mxGeometry>
        </mxCell>
        <mxCell id="y1zayQPK7Kp_e8DbdzyI-4" value="calcularImporteFinal(importeUnitario)" style="html=1;align=left;spacingLeft=2;endArrow=block;rounded=0;edgeStyle=orthogonalEdgeStyle;curved=0;rounded=0;fontSize=8;startSize=8;endSize=8;entryX=1;entryY=0.933;entryDx=0;entryDy=0;entryPerimeter=0;" parent="1" target="x2OQANyv_vTtA4uR1sMF-22" edge="1">
          <mxGeometry relative="1" as="geometry">
            <mxPoint x="440" y="410" as="sourcePoint" />
            <Array as="points">
              <mxPoint x="470" y="410" />
              <mxPoint x="470" y="440" />
            </Array>
            <mxPoint x="445" y="440" as="targetPoint" />
          </mxGeometry>
        </mxCell>
        <mxCell id="y1zayQPK7Kp_e8DbdzyI-5" value="CalculadorImpuestos" style="html=1;whiteSpace=wrap;" parent="1" vertex="1">
          <mxGeometry x="680" y="150" width="130" height="40" as="geometry" />
        </mxCell>
        <mxCell id="y1zayQPK7Kp_e8DbdzyI-6" value="" style="endArrow=none;dashed=1;html=1;rounded=0;fontSize=12;startSize=8;endSize=8;curved=1;" parent="1" source="y1zayQPK7Kp_e8DbdzyI-7" edge="1">
          <mxGeometry width="50" height="50" relative="1" as="geometry">
            <mxPoint x="750" y="590" as="sourcePoint" />
            <mxPoint x="744.8" y="190" as="targetPoint" />
          </mxGeometry>
        </mxCell>
        <mxCell id="y1zayQPK7Kp_e8DbdzyI-7" value="" style="html=1;points=[];perimeter=orthogonalPerimeter;outlineConnect=0;targetShapes=umlLifeline;portConstraint=eastwest;newEdgeStyle={&quot;edgeStyle&quot;:&quot;elbowEdgeStyle&quot;,&quot;elbow&quot;:&quot;vertical&quot;,&quot;curved&quot;:0,&quot;rounded&quot;:0};fontStyle=1" parent="1" vertex="1">
          <mxGeometry x="740" y="530" width="10" height="40" as="geometry" />
        </mxCell>
        <mxCell id="y1zayQPK7Kp_e8DbdzyI-10" value="" style="endArrow=none;dashed=1;html=1;rounded=0;fontSize=12;startSize=8;endSize=8;curved=1;" parent="1" edge="1">
          <mxGeometry width="50" height="50" relative="1" as="geometry">
            <mxPoint x="745" y="590" as="sourcePoint" />
            <mxPoint x="744.66" y="570" as="targetPoint" />
          </mxGeometry>
        </mxCell>
        <mxCell id="y1zayQPK7Kp_e8DbdzyI-11" value="7- devolver Total" style="endArrow=open;endFill=1;endSize=12;html=1;rounded=0;fontSize=9;curved=1;entryX=1.5;entryY=0.943;entryDx=0;entryDy=0;entryPerimeter=0;" parent="1" source="y1zayQPK7Kp_e8DbdzyI-7" target="udJZXEkAbmuMHJ7mnlVX-1" edge="1">
          <mxGeometry x="-0.0345" width="160" relative="1" as="geometry">
            <mxPoint x="250" y="650" as="sourcePoint" />
            <mxPoint x="710" y="650" as="targetPoint" />
            <Array as="points" />
            <mxPoint as="offset" />
          </mxGeometry>
        </mxCell>
        <mxCell id="x2OQANyv_vTtA4uR1sMF-31" value="6- Calcular(suma del importe final de cada item)" style="endArrow=open;endFill=1;endSize=12;html=1;rounded=0;fontSize=9;curved=1;" parent="1" target="y1zayQPK7Kp_e8DbdzyI-7" edge="1">
          <mxGeometry x="-0.0345" width="160" relative="1" as="geometry">
            <mxPoint x="280" y="530" as="sourcePoint" />
            <mxPoint x="160" y="530" as="targetPoint" />
            <Array as="points" />
            <mxPoint as="offset" />
          </mxGeometry>
        </mxCell>
      </root>
    </mxGraphModel>
  </diagram>
</mxfile>
